<?xml version="1.0" encoding="UTF-8"?> <svg xmlns="http://www.w3.org/2000/svg" width="700" height="600" viewBox="0 0 700 600" fill="none"> <path fill-rule="evenodd" clip-rule="evenodd" d="M444.864 270.649L619.239 360.189L357.738 583.938L444.864 270.649ZM80.7571 360.189L255.132 270.649L342.262 583.938L80.7571 360.189ZM172.099 11.9002L251.338 258.19L11.6941 176.752L172.099 11.9002ZM344.315 77.2349L321.138 124.91L258.672 253.396L180.718 11.0992L344.315 77.2349ZM519.282 11.0992L441.324 253.396L378.858 124.91L355.68 77.2349L519.282 11.0992ZM448.662 258.19L527.897 11.9002L688.302 176.752L448.662 258.19ZM624.221 353.606L452.496 265.424L688.692 185.156L624.221 353.606ZM247.504 265.424L75.7742 353.606L11.308 185.156L247.504 265.424ZM354.242 564.921V93.5085L437.639 265.046L365.62 524.007L354.242 564.921ZM262.356 265.046L345.754 93.5085V564.921L334.376 524.007L262.356 265.046ZM700 178.532C700 178.483 700 178.429 699.996 178.379C699.987 178.092 699.952 177.806 699.882 177.532C699.873 177.487 699.855 177.449 699.842 177.408C699.759 177.125 699.649 176.847 699.504 176.582C699.5 176.582 699.5 176.578 699.496 176.569C699.342 176.308 699.154 176.063 698.943 175.835C698.921 175.814 698.908 175.789 698.886 175.764L529.121 1.29205C529.073 1.23809 529.011 1.19645 528.959 1.14665C528.915 1.10514 528.88 1.05962 528.836 1.02227C528.814 1.00567 528.796 0.997324 528.774 0.980723C528.682 0.901866 528.586 0.835355 528.485 0.76895C528.428 0.727446 528.367 0.686075 528.31 0.644571C528.191 0.574015 528.073 0.515825 527.954 0.45357C527.902 0.432818 527.853 0.399593 527.805 0.378842C527.45 0.221129 527.077 0.113305 526.695 0.0510495C526.673 0.0468992 526.647 0.0468404 526.621 0.0426901C526.459 0.0219383 526.292 0.00529644 526.125 0.00114609C526.064 -0.00300425 526.007 0.00545248 525.945 0.00545248C525.814 0.00545248 525.686 0.00946704 525.551 0.0219181C525.472 0.0302188 525.393 0.046958 525.314 0.059409C525.226 0.07186 525.143 0.0800452 525.055 0.0966466C525.029 0.104947 525.007 0.109118 524.98 0.117419C524.897 0.13817 524.814 0.162939 524.735 0.187841C524.625 0.221043 524.52 0.250197 524.419 0.291701C524.388 0.300001 524.357 0.308381 524.331 0.320832L350 70.7936L175.669 0.320832C175.638 0.308381 175.612 0.300001 175.581 0.291701C175.476 0.250197 175.371 0.216893 175.265 0.187841C175.182 0.162939 175.099 0.13817 175.015 0.117419C174.993 0.109118 174.971 0.104947 174.945 0.0966466C174.857 0.0800452 174.77 0.071704 174.682 0.0551026C174.603 0.0468019 174.524 0.0302188 174.449 0.0219181C174.309 0.00946704 174.173 0.00545248 174.037 0.00545248C173.985 0.00545248 173.932 0.00114609 173.875 0.00114609C173.695 0.00529644 173.511 0.0218411 173.327 0.0467431C173.322 0.0508935 173.314 0.0510495 173.309 0.0510495C172.919 0.109154 172.542 0.221285 172.191 0.383148C172.151 0.399749 172.116 0.420406 172.077 0.441158C171.945 0.503413 171.813 0.569768 171.686 0.648624C171.629 0.681827 171.576 0.723237 171.524 0.76059C171.419 0.831146 171.318 0.901866 171.221 0.980723C171.204 0.997324 171.182 1.00982 171.164 1.02227C171.12 1.05962 171.085 1.10524 171.041 1.14259C170.989 1.1924 170.927 1.23809 170.875 1.29205L1.11412 175.764C1.08781 175.789 1.07903 175.814 1.0571 175.835C0.846554 176.063 0.653657 176.308 0.504521 176.569C0.500135 176.578 0.500073 176.582 0.495686 176.582C0.346551 176.847 0.241296 177.125 0.157956 177.408C0.144797 177.449 0.127239 177.487 0.118467 177.532C0.0438988 177.806 0.0087727 178.092 0 178.379V178.532C0.00438635 178.823 0.0351668 179.109 0.105348 179.396C0.109735 179.412 0.109663 179.429 0.114049 179.441C0.118436 179.47 0.136065 179.495 0.144837 179.524C0.175542 179.636 0.201771 179.744 0.245635 179.856L69.4711 360.733C69.4754 360.741 69.4798 360.749 69.4842 360.753C69.5105 360.824 69.5544 360.882 69.5851 360.948C69.6816 361.164 69.7868 361.372 69.9184 361.567C69.9798 361.654 70.0588 361.729 70.129 361.812C70.2562 361.969 70.3878 362.127 70.5413 362.264C70.5676 362.289 70.5851 362.322 70.6158 362.347L347.149 598.958C347.162 598.966 347.171 598.975 347.184 598.987C347.228 599.016 347.263 599.045 347.298 599.07C347.32 599.095 347.355 599.12 347.386 599.141C347.456 599.195 347.539 599.24 347.614 599.29C347.662 599.319 347.697 599.352 347.75 599.381C347.768 599.394 347.776 599.402 347.798 599.415C347.833 599.435 347.868 599.448 347.903 599.465C347.934 599.481 347.96 599.502 347.982 599.518C348.035 599.543 348.088 599.556 348.131 599.577C348.224 599.622 348.324 599.664 348.417 599.705C348.465 599.722 348.509 599.739 348.553 599.751C348.588 599.763 348.623 599.776 348.658 599.788C348.693 599.801 348.724 599.805 348.759 599.817C348.873 599.851 348.996 599.875 349.114 599.9C349.158 599.909 349.211 599.925 349.25 599.933C349.285 599.938 349.32 599.942 349.36 599.946C349.386 599.95 349.417 599.958 349.443 599.963H349.452C349.627 599.983 349.798 599.996 349.969 599.996C349.978 599.996 349.982 600 349.996 600C349.996 600 349.996 599.996 350 599.996C350 599.996 350 600 350.004 600C350.004 600 350.018 599.996 350.026 599.996C350.197 599.996 350.368 599.983 350.544 599.963H350.553C350.583 599.958 350.61 599.95 350.641 599.946C350.676 599.942 350.702 599.938 350.741 599.933C350.79 599.925 350.833 599.909 350.882 599.9C351 599.875 351.119 599.851 351.237 599.817C351.272 599.805 351.307 599.801 351.342 599.788C351.377 599.776 351.408 599.763 351.443 599.751C351.491 599.739 351.531 599.722 351.57 599.705C351.671 599.664 351.772 599.622 351.869 599.577C351.912 599.556 351.965 599.543 352.005 599.518C352.04 599.502 352.062 599.481 352.092 599.465C352.127 599.448 352.163 599.435 352.198 599.415C352.215 599.402 352.233 599.394 352.25 599.381C352.299 599.352 352.334 599.315 352.386 599.29C352.461 599.236 352.54 599.195 352.61 599.141C352.641 599.12 352.667 599.095 352.702 599.07C352.737 599.045 352.768 599.016 352.803 598.987C352.82 598.975 352.834 598.966 352.847 598.958L629.384 362.347C629.411 362.322 629.428 362.289 629.459 362.264C629.608 362.127 629.744 361.969 629.871 361.812C629.941 361.729 630.02 361.654 630.077 361.567C630.213 361.372 630.318 361.164 630.415 360.948C630.446 360.882 630.49 360.824 630.516 360.753C630.516 360.749 630.525 360.741 630.525 360.733L699.755 179.856C699.794 179.744 699.82 179.636 699.855 179.524C699.864 179.495 699.877 179.47 699.886 179.441C699.89 179.429 699.886 179.412 699.891 179.396C699.965 179.109 699.996 178.823 700 178.532Z" fill="#DBAF96" fill-opacity="0.06"></path> </svg> 