<?xml version="1.0" encoding="UTF-8"?> <svg xmlns="http://www.w3.org/2000/svg" width="60" height="16" viewBox="0 0 60 16" fill="none"> <path d="M2.68722 8.42203C3.44172 9.28053 4.03072 10.2775 4.42872 11.35C4.35422 11.3645 4.27872 11.381 4.19972 11.4075C4.13772 11.428 4.07521 11.4535 4.01371 11.482C3.66721 10.933 3.36072 10.36 3.11622 9.75904C2.94122 9.32704 2.80022 8.87903 2.68722 8.42203ZM10.5562 4.05952C9.64471 3.67002 8.65771 3.95053 7.89871 4.53403C7.22021 5.05553 6.76122 5.83203 6.34822 6.56553C6.05672 7.08253 5.80771 7.62153 5.60371 8.17853C4.66421 6.76203 3.40422 5.55552 1.92022 4.69852C1.24322 4.30702 0.0447182 4.89904 0.0112182 5.70554C-0.0952818 8.27404 0.555214 10.866 2.01821 12.998C2.37471 13.5185 2.76672 14.022 3.37022 14.263C3.64522 14.373 3.94721 14.414 4.24571 14.3935C4.33471 14.4455 4.43122 14.489 4.54022 14.5115C4.72872 14.55 4.92271 14.537 5.11021 14.491C5.34171 14.9085 5.90872 15.047 6.36822 14.923C6.99472 14.7535 7.42571 14.223 7.39721 13.578C7.38071 13.195 7.33721 12.816 7.27821 12.4405C7.26021 12.0925 7.26221 11.744 7.28071 11.3965C7.61571 10.829 7.97321 10.2745 8.36421 9.73902C8.81921 9.11602 9.30671 8.51702 9.82421 7.94602C10.0397 7.70752 10.2737 7.46804 10.5162 7.23054C10.8582 6.89554 11.3687 6.55753 11.5567 6.10953C11.9057 5.27803 11.3182 4.38602 10.5562 4.05952Z" fill="#DBAF96" fill-opacity="0.6"></path> <path d="M32.5881 5.68185C32.5271 6.01885 32.3461 6.34085 32.1741 6.63235C31.6746 7.48035 31.1631 8.32137 30.6466 9.15887C30.4351 9.50137 30.2171 9.83986 30.0031 10.1804C30.2836 9.21886 30.5651 8.25788 30.8516 7.29788C31.0386 6.67138 31.2236 5.94138 31.6616 5.44388C31.7306 5.37288 31.8041 5.30636 31.8806 5.24386C31.8971 5.23486 31.9136 5.22536 31.9376 5.21136C31.9781 5.18386 31.9956 5.16886 32.0041 5.15936C32.0136 5.16286 32.0381 5.16387 32.0971 5.15487C32.1211 5.14987 32.1351 5.14687 32.1526 5.14337C32.2081 5.13987 32.2646 5.14086 32.3201 5.14236C32.3146 5.14536 32.3431 5.15237 32.4076 5.16287C32.4251 5.17087 32.4481 5.18086 32.4786 5.19436C32.4156 5.17586 32.5206 5.19935 32.5581 5.28985C32.6136 5.42685 32.6146 5.53635 32.5881 5.68185ZM31.6306 3.08535C29.9571 3.47685 29.0666 4.96238 28.5846 6.49838C28.4826 6.82438 28.3851 7.15188 28.2861 7.47888C27.7341 6.47038 26.9656 5.57587 25.9931 4.88937C25.3646 4.44687 24.1361 4.53087 23.9021 5.42737C23.1796 8.19637 24.0966 11.2294 26.3666 13.0234C26.4661 13.1024 26.5781 13.1594 26.6936 13.2049C26.7221 13.6749 27.0546 13.9839 27.4701 14.1074C27.4291 14.1689 27.3896 14.2314 27.3486 14.2929C26.4671 15.6134 28.6711 16.4499 29.4346 15.3064C30.4911 13.7239 31.5226 12.1249 32.5256 10.5079C33.0091 9.72687 33.4871 8.94237 33.9581 8.15387C34.4406 7.34587 34.9926 6.50736 35.0706 5.54336C35.2251 3.63486 33.2766 2.70035 31.6306 3.08535Z" fill="#DBAF96" fill-opacity="0.6"></path> <path d="M58.286 4.35178C57.812 4.16728 57.337 4.26479 56.9045 4.50879C55.068 5.54229 53.6925 7.27479 52.9955 9.24329C51.9035 7.48279 50.6705 5.81177 49.3075 4.24377C48.6785 3.52077 46.9015 4.06678 47.0935 5.12228C47.665 8.26178 49.0945 11.1578 51.197 13.5528C51.2275 13.5873 51.2635 13.6138 51.2975 13.6428C51.109 14.0473 51.284 14.5433 51.695 14.7703C52.262 15.0833 52.994 14.9133 53.438 14.4743C53.4865 14.4268 53.5305 14.3743 53.5785 14.3258C54.3265 14.3803 55.2065 13.8993 55.0705 13.1288C55.0465 12.9908 55.0305 12.8528 55.015 12.7148C56.7775 10.5243 58.0925 8.00329 58.9005 5.29529C59.024 4.88129 58.623 4.48378 58.286 4.35178Z" fill="#DBAF96" fill-opacity="0.6"></path> </svg> 