<?xml version="1.0" encoding="UTF-8"?> <svg xmlns="http://www.w3.org/2000/svg" width="80" height="80" viewBox="0 0 80 80" fill="none"> <path fill-rule="evenodd" clip-rule="evenodd" d="M50.6639 36.6736L69.347 46.8214L41.329 72.1796L50.6639 36.6736ZM11.6525 46.8214L30.3356 36.6736L39.671 72.1796L11.6525 46.8214ZM21.4391 7.34869L29.9291 35.2615L4.25294 26.0319L21.4391 7.34869ZM39.8909 14.7533L37.4076 20.1565L30.7148 34.7183L22.3626 7.25791L39.8909 14.7533ZM58.6374 7.25791L50.2847 34.7183L43.5919 20.1565L41.1086 14.7533L58.6374 7.25791ZM51.071 35.2615L59.5604 7.34869L76.7466 26.0319L51.071 35.2615ZM69.8809 46.0754L51.4817 36.0814L76.7884 26.9844L69.8809 46.0754ZM29.5183 36.0814L11.1187 46.0754L4.21157 26.9844L29.5183 36.0814ZM40.9545 70.0244V16.5976L49.8899 36.0386L42.1736 65.3875L40.9545 70.0244ZM31.1096 36.0386L40.0451 16.5976V70.0244L38.826 65.3875L31.1096 36.0386ZM78 26.2337C78 26.228 78 26.2219 77.9995 26.2163C77.9986 26.1838 77.9948 26.1514 77.9873 26.1203C77.9864 26.1151 77.9845 26.1109 77.9831 26.1062C77.9742 26.0742 77.9624 26.0427 77.9469 26.0126C77.9464 26.0126 77.9464 26.0121 77.946 26.0112C77.9295 25.9816 77.9093 25.9538 77.8868 25.9279C77.8844 25.9256 77.883 25.9228 77.8806 25.9199L59.6915 6.14643C59.6864 6.14032 59.6798 6.1356 59.6741 6.12995C59.6694 6.12525 59.6657 6.12009 59.661 6.11586C59.6586 6.11398 59.6568 6.11303 59.6544 6.11115C59.6445 6.10221 59.6342 6.09467 59.6234 6.08715C59.6173 6.08244 59.6107 6.07776 59.6046 6.07305C59.5919 6.06506 59.5792 6.05846 59.5665 6.0514C59.5609 6.04905 59.5557 6.04529 59.5505 6.04294C59.5125 6.02506 59.4725 6.01284 59.4316 6.00579C59.4293 6.00532 59.4265 6.00531 59.4237 6.00484C59.4063 6.00249 59.3884 6.0006 59.3705 6.00013C59.364 5.99966 59.3579 6.00062 59.3513 6.00062C59.3372 6.00062 59.3236 6.00107 59.309 6.00248C59.3005 6.00342 59.2921 6.00532 59.2836 6.00673C59.2742 6.00814 59.2653 6.00907 59.2559 6.01095C59.2531 6.01189 59.2507 6.01237 59.2479 6.01331C59.239 6.01566 59.23 6.01847 59.2216 6.02129C59.2098 6.02505 59.1985 6.02836 59.1877 6.03306C59.1844 6.034 59.1811 6.03495 59.1783 6.03636L40.5 14.0233L21.8217 6.03636C21.8184 6.03495 21.8156 6.034 21.8123 6.03306C21.801 6.02836 21.7897 6.02458 21.7784 6.02129C21.7695 6.01847 21.7606 6.01566 21.7516 6.01331C21.7493 6.01237 21.7469 6.01189 21.7441 6.01095C21.7347 6.00907 21.7253 6.00813 21.7159 6.00624C21.7075 6.0053 21.699 6.00342 21.691 6.00248C21.676 6.00107 21.6614 6.00062 21.6468 6.00062C21.6412 6.00062 21.6356 6.00013 21.6295 6.00013C21.6102 6.0006 21.5905 6.00248 21.5707 6.0053C21.5702 6.00577 21.5693 6.00579 21.5688 6.00579C21.527 6.01237 21.4866 6.02508 21.449 6.04342C21.4448 6.0453 21.441 6.04765 21.4368 6.05C21.4227 6.05705 21.4086 6.06457 21.395 6.07351C21.3888 6.07727 21.3832 6.08197 21.3776 6.0862C21.3663 6.0942 21.3555 6.10221 21.3451 6.11115C21.3432 6.11303 21.3409 6.11445 21.339 6.11586C21.3343 6.12009 21.3306 6.12526 21.3259 6.12949C21.3202 6.13514 21.3136 6.14032 21.308 6.14643L3.11937 25.9199C3.11655 25.9228 3.11561 25.9256 3.11326 25.9279C3.0907 25.9538 3.07003 25.9816 3.05406 26.0112C3.05359 26.0121 3.05358 26.0126 3.05311 26.0126C3.03713 26.0427 3.02585 26.0742 3.01692 26.1062C3.01551 26.1109 3.01363 26.1151 3.01269 26.1203C3.0047 26.1514 3.00094 26.1838 3 26.2163V26.2337C3.00047 26.2666 3.00377 26.299 3.01129 26.3315C3.01176 26.3334 3.01175 26.3353 3.01222 26.3367C3.01269 26.34 3.01458 26.3428 3.01552 26.3461C3.01881 26.3588 3.02162 26.371 3.02632 26.3837L10.4433 46.883C10.4438 46.884 10.4443 46.8849 10.4447 46.8854C10.4476 46.8934 10.4523 46.9 10.4555 46.9075C10.4659 46.9319 10.4772 46.9555 10.4913 46.9776C10.4978 46.9874 10.5063 46.9959 10.5138 47.0053C10.5274 47.0232 10.5415 47.0411 10.558 47.0566C10.5608 47.0594 10.5627 47.0632 10.566 47.066L40.1945 73.8819C40.1959 73.8829 40.1969 73.8838 40.1983 73.8852C40.203 73.8885 40.2067 73.8918 40.2105 73.8946C40.2129 73.8975 40.2166 73.9003 40.2199 73.9026C40.2274 73.9087 40.2364 73.9139 40.2444 73.9196C40.2495 73.9229 40.2533 73.9266 40.2589 73.9299C40.2608 73.9313 40.2617 73.9322 40.2641 73.9337C40.2678 73.936 40.2716 73.9374 40.2754 73.9393C40.2786 73.9412 40.2815 73.9435 40.2838 73.9454C40.2895 73.9482 40.2951 73.9496 40.2998 73.952C40.3097 73.9572 40.3205 73.9619 40.3303 73.9666C40.3355 73.9685 40.3402 73.9704 40.3449 73.9718C40.3487 73.9732 40.3524 73.9746 40.3562 73.976C40.36 73.9774 40.3632 73.9779 40.367 73.9793C40.3792 73.9831 40.3924 73.9859 40.4051 73.9887C40.4098 73.9896 40.4154 73.9915 40.4196 73.9925C40.4234 73.9929 40.4272 73.9934 40.4314 73.9939C40.4342 73.9944 40.4375 73.9953 40.4403 73.9958H40.4413C40.4601 73.9981 40.4784 73.9995 40.4967 73.9995C40.4977 73.9995 40.4981 74 40.4995 74C40.4995 74 40.4995 73.9995 40.5 73.9995C40.5 73.9995 40.5 74 40.5005 74C40.5005 74 40.5019 73.9995 40.5028 73.9995C40.5212 73.9995 40.5395 73.9981 40.5583 73.9958H40.5592C40.5625 73.9953 40.5653 73.9944 40.5686 73.9939C40.5724 73.9934 40.5752 73.9929 40.5794 73.9925C40.5846 73.9915 40.5893 73.9896 40.5945 73.9887C40.6072 73.9859 40.6199 73.9831 40.6325 73.9793C40.6363 73.9779 40.64 73.9774 40.6438 73.976C40.6476 73.9746 40.6509 73.9732 40.6546 73.9718C40.6598 73.9704 40.664 73.9685 40.6683 73.9666C40.6791 73.9619 40.6899 73.9572 40.7002 73.952C40.7049 73.9496 40.7105 73.9482 40.7148 73.9454C40.7185 73.9435 40.7209 73.9412 40.7242 73.9393C40.7279 73.9374 40.7317 73.936 40.7355 73.9337C40.7373 73.9322 40.7392 73.9313 40.7411 73.9299C40.7463 73.9266 40.75 73.9224 40.7557 73.9196C40.7637 73.9134 40.7721 73.9087 40.7796 73.9026C40.7829 73.9003 40.7857 73.8975 40.7895 73.8946C40.7933 73.8918 40.7966 73.8885 40.8003 73.8852C40.8022 73.8838 40.8036 73.8829 40.805 73.8819L70.434 47.066C70.4368 47.0632 70.4387 47.0594 70.442 47.0566C70.458 47.0411 70.4726 47.0232 70.4862 47.0053C70.4937 46.9959 70.5022 46.9874 70.5083 46.9776C70.5229 46.9555 70.5341 46.9319 70.5445 46.9075C70.5477 46.9 70.5525 46.8934 70.5553 46.8854C70.5553 46.8849 70.5562 46.884 70.5562 46.883L77.9737 26.3837C77.9779 26.371 77.9807 26.3588 77.9845 26.3461C77.9854 26.3428 77.9868 26.34 77.9878 26.3367C77.9883 26.3353 77.9878 26.3334 77.9883 26.3315C77.9963 26.299 77.9995 26.2666 78 26.2337Z" fill="#DBAF96"></path> </svg> 